<svg xmlns="http://www.w3.org/2000/svg" version="1.0" width="600" height="56" viewBox="0 0 600 56" preserveAspectRatio="xMidYMid meet"><default:g xmlns:default="http://www.w3.org/2000/svg" transform="translate(0.000000,56.000000) scale(0.050000,-0.050000)" fill="#000000" stroke="none"><default:path d="M680 1090 c-610 -66 -801 -209 -548 -408 113 -89 171 -18 71 85 -35 36 -63 71 -63 79 0 66 661 174 1076 174 71 0 110 51 62 82 -38 24 -321 19 -598 -12z"/><default:path d="M1530 1072 c-127 -77 -228 -246 -429 -717 -168 -395 -35 -441 504 -175 107 53 195 94 195 91 0 -3 -14 -33 -31 -68 -87 -173 40 -247 190 -112 68 62 81 67 81 35 0 -171 219 -140 598 84 102 60 189 110 193 110 4 0 -11 -41 -33 -91 -114 -256 92 -285 465 -67 155 90 173 111 132 151 -25 26 -55 16 -242 -82 -192 -100 -273 -130 -273 -101 0 14 262 596 274 610 5 6 96 19 201 30 119 13 195 29 200 45 14 42 -91 66 -227 53 l-127 -13 43 100 c86 206 -15 230 -106 26 -62 -139 -63 -139 -155 -151 -227 -30 -289 -85 -167 -148 72 -36 103 -84 104 -156 0 -43 -656 -406 -734 -406 -47 0 -29 144 35 279 129 272 41 311 -256 114 -207 -138 -649 -360 -763 -384 -139 -28 -13 221 255 502 351 367 395 634 73 441z m68 -127 c-93 -119 -205 -245 -213 -237 -15 15 129 225 177 259 55 39 74 27 36 -22z m518 -517 c-50 -86 -237 -293 -251 -279 -27 27 235 351 284 351 5 0 -9 -32 -33 -72z"/><default:path d="M4590 1082 c-383 -70 -618 -160 -579 -223 16 -27 47 -22 349 57 403 105 757 125 935 53 124 -51 71 -100 -243 -230 -320 -132 -378 -252 -209 -431 71 -74 61 -86 -117 -146 -134 -45 -266 -55 -266 -20 0 11 91 183 201 381 202 362 231 457 119 397 -32 -17 -277 -434 -408 -695 -112 -224 139 -286 502 -125 193 85 208 136 76 256 -152 138 -121 182 225 325 621 256 201 545 -585 401z"/><default:path d="M8866 1095 c-11 -14 -66 -137 -124 -275 -126 -299 -207 -437 -332 -567 -176 -184 -101 -16 95 212 129 150 85 266 -47 122 -101 -110 -720 -467 -810 -467 -48 0 -33 131 33 275 126 278 42 316 -256 117 -299 -198 -726 -392 -866 -392 -105 0 -57 198 80 336 90 90 99 66 18 -47 -37 -52 -76 -106 -87 -122 -19 -27 13 -66 56 -67 27 0 134 125 175 204 107 206 -11 285 -216 144 -162 -112 -583 -187 -653 -117 -40 39 -31 134 21 234 34 66 22 95 -39 95 -34 0 -71 -44 -164 -198 -131 -217 -146 -232 -100 -103 43 124 40 165 -14 157 -36 -5 -61 -49 -137 -248 -126 -327 -129 -341 -78 -369 65 -34 83 -18 231 218 l138 220 59 -71 59 -72 191 13 c105 6 222 21 260 32 85 25 85 26 51 -70 -115 -323 138 -364 655 -107 162 80 192 89 173 54 -107 -199 12 -297 179 -146 l77 70 19 -64 c39 -137 256 -90 624 135 l86 53 -33 -63 c-102 -198 51 -270 231 -108 l79 72 0 -73 c0 -147 149 -136 498 39 133 67 182 101 182 129 0 71 -42 63 -276 -48 -243 -116 -304 -133 -304 -83 0 48 106 321 237 614 68 150 123 292 123 315 0 47 -63 59 -94 17z m-1264 -631 c-64 -119 -282 -361 -282 -312 0 34 129 211 201 277 88 79 110 89 81 35z"/><default:path d="M10320 1069 c-157 -73 -447 -373 -547 -565 -280 -537 132 -650 962 -263 91 42 165 72 165 67 0 -6 -10 -50 -22 -99 -43 -168 95 -253 232 -145 67 52 170 210 170 260 0 43 14 44 80 6 55 -31 293 -40 337 -12 67 42 15 92 -98 94 -182 2 -195 6 -266 68 -77 68 -133 78 -133 24 0 -124 -137 -384 -202 -384 -54 0 31 240 133 374 110 144 27 193 -101 59 -217 -227 -1070 -521 -1200 -413 -163 135 315 791 635 871 76 19 86 -22 36 -153 -52 -137 -52 -138 17 -138 68 0 122 106 122 240 0 160 -121 201 -320 109z"/><default:path d="M577 766 l-87 -153 -160 -42 c-121 -31 -161 -50 -167 -79 -11 -57 34 -71 129 -38 127 43 130 33 33 -149 l-89 -166 -68 61 c-92 80 -191 78 -157 -3 18 -44 202 -177 245 -177 30 0 71 59 173 247 l133 247 134 13 c74 7 168 13 210 13 68 0 76 5 70 45 -6 42 -17 45 -171 51 -91 3 -165 10 -165 15 0 4 27 52 60 106 74 120 77 163 12 163 -39 0 -64 -29 -135 -154z"/><default:path d="M11859 98 c-28 -52 -2 -84 62 -75 62 9 100 71 59 97 -49 32 -97 23 -121 -22z"/></default:g></svg>